<svg id="Layer_2" data-name="Layer 2" xmlns="http://www.w3.org/2000/svg" viewBox="0 0 24.54 18.14">
  <defs>
    <style>
      .cls-1 {
        fill: #4338ca;
        stroke-width: 0px;
      }
			@media (prefers-color-scheme: dark) {
        path { fill: white !important; }
      }
    </style>
  </defs>
  <g id="Layer_1-2" data-name="Layer 1">
    <path class="cls-1" d="M14.67,8.99c-.36,1.73-.82,4.01-1.2,5.84-.33,1.27-.32,2.72-1.49,3.14-1.36.41-3.15.04-3.65-1.43-1.08-3.03-3.15-8.9-3.57-10.17-.53-1.06-.7-.03-.7.15.04,2.67.06,5.62.06,8.05-.06,1.13.31,2.71-.92,3.31-1.27.48-3.22.41-3.15-1.21-.09-2.7.01-6.25-.02-9.17,0-2.47-.01-4.82,0-6.11,0-.36.07-.72.34-.96C.81-.02,1.96,0,2.99,0c1.85-.05,3.28.11,3.92,2.08.96,2.35,2.45,5.9,3.43,8.34.13.23.25.68.53.68.28-.05.41-1.46.58-2.56.28-2.07.59-4.48.93-6.35C12.56.44,13.78.09,15.48.01c1.45,0,2.64.15,3.49.93.34.31.57.72.71,1.16,1.21,3.88,4.06,11.85,4.87,15.13.01.41-.5.69-.94.75-1.23.11-2.53.17-3.15-.81-1.42-2.79-3.47-9.68-4.15-11.73-.27-.81-.56-.68-.72-.02"/>
  </g>
</svg>